<mxfile host="app.diagrams.net" agent="Mozilla/5.0 (Windows NT 10.0; Win64; x64) AppleWebKit/537.36 (KHTML, like Gecko) Chrome/130.0.0.0 Safari/537.36 Edg/130.0.0.0" version="24.8.3">
  <diagram name="Page-1" id="LADLwiFR2EDL9LDYRoZP">
    <mxGraphModel dx="2482" dy="1415" grid="0" gridSize="10" guides="1" tooltips="1" connect="1" arrows="1" fold="1" page="0" pageScale="1" pageWidth="827" pageHeight="1169" math="0" shadow="0">
      <root>
        <mxCell id="0" />
        <mxCell id="1" parent="0" />
        <mxCell id="YM_TwdglXM7z7Qn6m4Os-4" value="" style="edgeStyle=none;curved=1;rounded=0;orthogonalLoop=1;jettySize=auto;html=1;fontSize=12;startSize=8;endSize=8;" edge="1" parent="1" source="YM_TwdglXM7z7Qn6m4Os-2" target="YM_TwdglXM7z7Qn6m4Os-3">
          <mxGeometry relative="1" as="geometry" />
        </mxCell>
        <mxCell id="YM_TwdglXM7z7Qn6m4Os-2" value="Dubbo三大核心能力" style="rounded=1;whiteSpace=wrap;html=1;" vertex="1" parent="1">
          <mxGeometry x="-1016" y="-275" width="120" height="60" as="geometry" />
        </mxCell>
        <mxCell id="YM_TwdglXM7z7Qn6m4Os-3" value="面向接口的远程调用" style="rounded=1;whiteSpace=wrap;html=1;" vertex="1" parent="1">
          <mxGeometry x="-744" y="-410" width="120" height="60" as="geometry" />
        </mxCell>
        <mxCell id="YM_TwdglXM7z7Qn6m4Os-5" value="智能容错和负载均衡" style="rounded=1;whiteSpace=wrap;html=1;" vertex="1" parent="1">
          <mxGeometry x="-739" y="-275" width="120" height="60" as="geometry" />
        </mxCell>
        <mxCell id="YM_TwdglXM7z7Qn6m4Os-7" value="服务自动注册和发现" style="rounded=1;whiteSpace=wrap;html=1;" vertex="1" parent="1">
          <mxGeometry x="-750" y="-153" width="120" height="60" as="geometry" />
        </mxCell>
        <mxCell id="YM_TwdglXM7z7Qn6m4Os-9" value="" style="endArrow=classic;html=1;rounded=0;fontSize=12;startSize=8;endSize=8;curved=1;exitX=1;exitY=0.5;exitDx=0;exitDy=0;" edge="1" parent="1" source="YM_TwdglXM7z7Qn6m4Os-2" target="YM_TwdglXM7z7Qn6m4Os-5">
          <mxGeometry width="50" height="50" relative="1" as="geometry">
            <mxPoint x="-829" y="-195" as="sourcePoint" />
            <mxPoint x="-779" y="-245" as="targetPoint" />
          </mxGeometry>
        </mxCell>
        <mxCell id="YM_TwdglXM7z7Qn6m4Os-10" value="" style="endArrow=classic;html=1;rounded=0;fontSize=12;startSize=8;endSize=8;curved=1;entryX=0;entryY=0.5;entryDx=0;entryDy=0;exitX=1;exitY=1;exitDx=0;exitDy=0;" edge="1" parent="1" source="YM_TwdglXM7z7Qn6m4Os-2" target="YM_TwdglXM7z7Qn6m4Os-7">
          <mxGeometry width="50" height="50" relative="1" as="geometry">
            <mxPoint x="-1023" y="-54" as="sourcePoint" />
            <mxPoint x="-973" y="-104" as="targetPoint" />
          </mxGeometry>
        </mxCell>
      </root>
    </mxGraphModel>
  </diagram>
</mxfile>
